<svg id="Group_62" data-name="Group 62" xmlns="http://www.w3.org/2000/svg" width="46.2" height="32" viewBox="0 0 46.2 32">
  <path id="Icon_awesome-building" data-name="Icon awesome-building" d="M27.25,30H26V1.5A1.5,1.5,0,0,0,24.5,0H3.5A1.5,1.5,0,0,0,2,1.5V30H.75a.75.75,0,0,0-.75.75V32H28V30.75A.75.75,0,0,0,27.25,30ZM8,4.75A.75.75,0,0,1,8.75,4h2.5a.75.75,0,0,1,.75.75v2.5a.75.75,0,0,1-.75.75H8.75A.75.75,0,0,1,8,7.25Zm0,6A.75.75,0,0,1,8.75,10h2.5a.75.75,0,0,1,.75.75v2.5a.75.75,0,0,1-.75.75H8.75A.75.75,0,0,1,8,13.25ZM11.25,20H8.75A.75.75,0,0,1,8,19.25v-2.5A.75.75,0,0,1,8.75,16h2.5a.75.75,0,0,1,.75.75v2.5A.75.75,0,0,1,11.25,20ZM16,30H12V24.75a.75.75,0,0,1,.75-.75h2.5a.75.75,0,0,1,.75.75Zm4-10.75a.75.75,0,0,1-.75.75h-2.5a.75.75,0,0,1-.75-.75v-2.5a.75.75,0,0,1,.75-.75h2.5a.75.75,0,0,1,.75.75Zm0-6a.75.75,0,0,1-.75.75h-2.5a.75.75,0,0,1-.75-.75v-2.5a.75.75,0,0,1,.75-.75h2.5a.75.75,0,0,1,.75.75Zm0-6a.75.75,0,0,1-.75.75h-2.5A.75.75,0,0,1,16,7.25V4.75A.75.75,0,0,1,16.75,4h2.5a.75.75,0,0,1,.75.75Z" transform="translate(0)" fill="#fff"/>
  <path id="Icon_awesome-plus" data-name="Icon awesome-plus" d="M14.857,8.536H9.714V3.393A1.143,1.143,0,0,0,8.571,2.25H7.429A1.143,1.143,0,0,0,6.286,3.393V8.536H1.143A1.143,1.143,0,0,0,0,9.679v1.143a1.143,1.143,0,0,0,1.143,1.143H6.286v5.143A1.143,1.143,0,0,0,7.429,18.25H8.571a1.143,1.143,0,0,0,1.143-1.143V11.964h5.143A1.143,1.143,0,0,0,16,10.821V9.679A1.143,1.143,0,0,0,14.857,8.536Z" transform="translate(30.2 5.75)" fill="#fff"/>
</svg>
