<svg xmlns="http://www.w3.org/2000/svg" width="39.8" height="31.84" viewBox="0 0 39.8 31.84">
  <path id="Icon_awesome-user-plus" data-name="Icon awesome-user-plus" d="M38.8,12.935h-3.98V8.955a1,1,0,0,0-.995-.995H31.84a1,1,0,0,0-.995.995v3.98h-3.98a1,1,0,0,0-.995.995v1.99a1,1,0,0,0,.995.995h3.98v3.98a1,1,0,0,0,.995.995h1.99a1,1,0,0,0,.995-.995v-3.98H38.8a1,1,0,0,0,.995-.995V13.93A1,1,0,0,0,38.8,12.935ZM13.93,15.92A7.96,7.96,0,1,0,5.97,7.96,7.959,7.959,0,0,0,13.93,15.92ZM19.5,17.91H18.463a10.825,10.825,0,0,1-9.067,0H8.358A8.36,8.36,0,0,0,0,26.268v2.587A2.986,2.986,0,0,0,2.985,31.84h21.89a2.986,2.986,0,0,0,2.985-2.985V26.268A8.36,8.36,0,0,0,19.5,17.91Z" fill="#fff"/>
</svg>
